<?xml version="1.0" encoding="UTF-8"?>
<svg id="Camada_1" data-name="Camada 1" xmlns="http://www.w3.org/2000/svg" viewBox="0 0 90 90">
  <defs>
    <style>
      .cls-1 {
        fill: #2186f4;
        stroke-width: 0px;
      }
    </style>
  </defs>
  <path class="cls-1" d="m42.4,4.93c1.74,0,3.47,0,5.21,0,1.42.19,2.85.3,4.25.59,16.31,3.36,26.95,13.01,31.8,28.93.76,2.5.96,5.16,1.42,7.75v5.61c-.48,2.65-.7,5.38-1.47,7.95-4.3,14.34-13.68,23.69-28.05,27.92-2.38.7-4.9.95-7.35,1.4h-6.41c-2.62-.5-5.31-.76-7.84-1.53-14.04-4.31-23.23-13.56-27.52-27.6-.76-2.5-1.02-5.15-1.52-7.74,0-2,0-4.01,0-6.01.07-.66.13-1.32.22-1.98,1-7.43,3.68-14.16,8.38-20.05,5.84-7.33,13.34-12.08,22.46-14.22,2.1-.49,4.27-.69,6.4-1.02Zm-5.97,42.85c2.8,0,5.61-.02,8.41.02.42,0,.85.24,1.27.37-.13.42-.17.92-.41,1.26-2,2.83-4.04,5.65-6.08,8.46-2.53,3.49-5.07,6.96-7.57,10.46-.22.31-.15.82-.22,1.24.37-.13.83-.16,1.1-.4,1.18-1.03,2.3-2.13,3.45-3.2,8.59-8.01,17.19-16.01,25.78-24.04.46-.43.75-1.03,1.13-1.55-.65-.15-1.29-.41-1.94-.42-5.07-.04-10.15-.01-15.22-.03-1.35,0-1.63-.5-1.03-1.68.08-.15.16-.29.24-.44,3.08-5.66,6.17-11.31,9.22-16.98.18-.34.08-.83.11-1.25-.39.15-.87.22-1.16.48-.84.75-1.61,1.59-2.42,2.4-7.95,7.91-15.91,15.82-23.84,23.74-.27.27-.37.72-.55,1.09.41.15.82.43,1.23.44,2.84.04,5.68.02,8.51.02Z"/>
</svg>