<?xml version="1.0" encoding="UTF-8"?>
<svg id="Camada_1" data-name="Camada 1" xmlns="http://www.w3.org/2000/svg" xmlns:xlink="http://www.w3.org/1999/xlink" viewBox="0 0 90 90">
  <defs>
    <style>
      .cls-1 {
        fill: #2186f4;
      }

      .cls-1, .cls-2 {
        stroke-width: 0px;
      }

      .cls-2, .cls-3 {
        fill: none;
      }

      .cls-4 {
        clip-path: url(#clippath);
      }

      .cls-3 {
        stroke: #2186f4;
        stroke-miterlimit: 10;
      }
    </style>
    <clipPath id="clippath">
      <rect class="cls-2" x="-2309.7" y="-1101.65" width="1920" height="1041.78"/>
    </clipPath>
  </defs>
  <g class="cls-4">
    <polygon class="cls-3" points="-528.97 321.32 162.01 -369.68 -528.97 -1060.69 -732.68 -856.98 -245.37 -369.68 -732.68 117.61 -528.97 321.32"/>
  </g>
  <g>
    <path class="cls-1" d="m45.08,18.72c9.92,0,19.83.01,29.75-.02.96,0,1.21.21,1.12,1.19-.78,8.04-1.51,16.09-2.25,24.14-.72,7.82-1.43,15.64-2.15,23.46-.4,4.4-.82,8.81-1.2,13.21-.07.81-.39,1.15-1.19,1.36-7.77,2.06-15.52,4.16-23.28,6.25-.57.15-1.09.18-1.67.02-7.79-2.12-15.58-4.22-23.39-6.28-.82-.22-1.09-.6-1.16-1.39-.77-8.62-1.56-17.24-2.35-25.85-.88-9.53-1.77-19.05-2.66-28.58-.19-2.05-.27-4.12-.58-6.15-.2-1.29.3-1.4,1.37-1.39,5.53.05,11.06.02,16.59.02,4.35,0,8.7,0,13.04,0Zm.14,20.42c-.36.42-.79.5-1.16.65-5.33,2.26-10.66,4.52-16.01,6.74-.72.3-.97.66-.9,1.43.17,1.71.35,3.42.34,5.13,0,1.29.49,1.52,1.68,1.51,8.01-.06,16.02-.01,24.03-.05.93,0,1.27.2,1.18,1.2-.23,2.58-.37,5.17-.5,7.76-.04.81-.34,1.19-1.14,1.41-2.27.63-4.53,1.35-6.78,2.04-.48.15-.95.19-1.45.05-2.42-.68-4.84-1.37-7.27-2-.64-.16-.87-.46-.9-1.09-.07-1.33-.22-2.66-.27-3.99-.03-.82-.24-1.22-1.19-1.17-1.83.09-3.66.08-5.49,0-.95-.04-1.15.29-1.06,1.16.32,3.26.61,6.53.84,9.8.05.73.38.96.99,1.13,4.68,1.35,9.36,2.71,14.04,4.08.49.14.96.18,1.46.04,4.88-1.36,9.76-2.72,14.64-4.06.53-.14.73-.39.76-.94.07-1.33.21-2.66.32-3.99.49-5.93.96-11.85,1.51-17.78.1-1.11-.28-1.32-1.29-1.31-4.96.05-9.92.02-14.87.01-.4,0-.81.11-1.23-.12.29-.38.72-.44,1.09-.59,5.4-2.3,10.8-4.59,16.21-6.85.64-.27.95-.6.99-1.32.09-1.9.24-3.8.42-5.7.07-.71-.05-1.01-.87-1.01-12.36.04-24.71.06-37.07.07-.79,0-.97.24-.84,1,.32,1.84.62,3.68.81,5.54.09.91.39,1.21,1.32,1.19,5.41-.08,10.83-.1,16.25-.14.45,0,.91-.11,1.44.15Z"/>
    <path class="cls-1" d="m57.38,9.11c-.79-.76-1.55-1.57-2.39-2.27-.86-.71-1.19-1.53-1.16-2.66.08-2.6.03-2.6,2.64-2.6,2.02,0,4.04.03,6.06-.02.71-.02.96.21.91.91-.08,1.02.41,2.3-.2,3-.58.66-1.87.15-2.84.23-.15.01-.3.02-.52.04.9.96,1.76,1.89,2.64,2.8.74.76,1.28,3.42.87,4.35-.17.39-.48.31-.77.31-2.67,0-5.34,0-8.01,0-.08,0-.17.03-.23-.01-1.08-.79-.32-1.92-.51-2.87-.09-.45-.06-.93.66-.91.9.03,1.81,0,2.71,0l.14-.31Z"/>
    <path class="cls-1" d="m44.03,9.34c-1.04-1-1.82-1.84-2.69-2.57-.87-.72-1.16-1.56-1.12-2.68.08-2.51.02-2.51,2.5-2.51,2.1,0,4.19.02,6.29-.01.66-.01.87.21.84.85-.04.84-.04,1.68,0,2.51.03.61-.22.8-.8.77-.9-.04-1.8,0-2.92,0,.88.9,1.52,1.7,2.3,2.33,1.09.89,1.55,1.9,1.44,3.35-.14,1.83-.03,1.84-1.82,1.84-2.25,0-4.5-.02-6.75.01-.75.01-1.07-.15-1.08-1-.01-2.77-.05-2.77,2.69-2.81.26,0,.52-.03,1.12-.07Z"/>
    <path class="cls-1" d="m26.59,7.35c0-1.6.02-3.2,0-4.8-.01-.69.12-1.02.93-1,2.59.06,5.18.05,7.76,0,.72-.01.88.24.9.91.08,3.22.1,3.22-3.14,3.22-2.35,0-2.28,0-2.37,2.32-.05,1.2.35,1.53,1.48,1.42,1.02-.09,2.05.01,3.08-.03.66-.03.93.14.95.88.09,2.92.12,2.92-2.78,2.92-1.87,0-3.73-.05-5.59.02-.92.03-1.29-.2-1.24-1.19.08-1.56.02-3.12.02-4.68Z"/>
  </g>
</svg>