<?xml version="1.0" encoding="UTF-8"?>
<svg id="Camada_1" data-name="Camada 1" xmlns="http://www.w3.org/2000/svg" viewBox="0 0 90 90">
  <defs>
    <style>
      .cls-1 {
        fill: #2186f4;
        stroke-width: 0px;
      }
    </style>
  </defs>
  <path class="cls-1" d="m52.72,64.8c2.39-.34,4.56-.71,6.67-1.37,6.97-2.18,10.88-6.97,12.07-14.08.6-3.58.78-7.18-.3-10.73-.62-2.04-1.6-3.9-2.99-5.51-.42-.49-.53-.88-.33-1.51,1.01-3.32.66-6.6-.44-9.85-.18-.53-.49-.73-1.03-.73-1.46.02-2.84.39-4.19.89-2.11.79-4.06,1.88-5.92,3.13-.48.32-.9.41-1.48.26-6.48-1.61-12.97-1.62-19.45-.02-.62.15-1.06.08-1.58-.26-2.76-1.79-5.61-3.39-8.92-3.91-1.79-.28-1.99-.18-2.48,1.53-.88,3.05-1.05,6.12-.09,9.18.12.38.11.67-.17,1-3.82,4.47-4.45,9.71-3.71,15.28.48,3.56,1.5,6.92,3.78,9.79,2.88,3.63,6.83,5.35,11.22,6.27,1.23.26,2.47.43,3.83.66-1.41,1.53-2.16,3.25-2.44,5.17-.07.47-.37.59-.71.73-4.68,1.99-8.88.64-11.59-3.7-1.4-2.25-3.26-3.88-5.95-4.38-.53-.1-1.06-.09-1.59.05-1.06.29-1.21.81-.42,1.61.28.28.59.56.93.76,2.12,1.23,3.64,3.08,4.38,5.32,1.63,4.91,6.44,7.03,11.59,6.53.76-.07,1.53-.15,2.28-.31.64-.13.81.06.8.69-.01,2.24.04,4.48.04,6.72,0,1.96-1.26,2.86-3.14,2.22-3.66-1.24-7.11-2.93-10.24-5.2C8.66,72,2.48,59.71,2.9,44.33,3.44,24.53,18.13,7.72,37.61,4.21,60.26.14,82.03,15.21,86.36,37.97c3.94,20.72-7.71,41.19-27.42,48.16-2.36.83-3.52,0-3.51-2.51.02-3.51.03-7.02.06-10.54.02-3.01-.46-5.86-2.77-8.28Z"/>
</svg>