<?xml version="1.0" encoding="UTF-8"?>
<svg id="Camada_1" data-name="Camada 1" xmlns="http://www.w3.org/2000/svg" xmlns:xlink="http://www.w3.org/1999/xlink" viewBox="0 0 90 90">
  <defs>
    <style>
      .cls-1 {
        fill: #2186f4;
      }

      .cls-1, .cls-2 {
        stroke-width: 0px;
      }

      .cls-2, .cls-3 {
        fill: none;
      }

      .cls-4 {
        clip-path: url(#clippath);
      }

      .cls-3 {
        stroke: #2186f4;
        stroke-miterlimit: 10;
      }
    </style>
    <clipPath id="clippath">
      <rect class="cls-2" x="-2419.7" y="-1101.65" width="1920" height="1041.78"/>
    </clipPath>
  </defs>
  <g class="cls-4">
    <polygon class="cls-3" points="-638.97 321.32 52.01 -369.68 -638.97 -1060.69 -842.68 -856.98 -355.37 -369.68 -842.68 117.61 -638.97 321.32"/>
  </g>
  <path class="cls-1" d="m4.6,85.4V4.6c26.93,0,53.87,0,80.8,0v80.8H4.6Zm48.08-14.11c.08.17.14.29.2.41,1.22,2.22,2.9,3.99,5.09,5.26,2.15,1.26,4.49,1.88,6.96,2.07,2.52.19,4.99-.01,7.37-.88,2.82-1.03,4.98-2.8,6.12-5.64.66-1.64.82-3.35.69-5.11-.16-2.26-.88-4.28-2.39-6-1.21-1.37-2.67-2.43-4.29-3.23-2.08-1.03-4.22-1.95-6.32-2.92-.98-.45-1.94-.94-2.72-1.71-1.36-1.34-1.4-4.64,1.45-5.45.85-.24,1.71-.22,2.57-.04,1.38.3,2.31,1.18,3.07,2.31.17.26.34.52.52.8,1.99-1.28,3.96-2.54,5.94-3.81-1.19-2.1-2.68-3.86-4.86-4.87-3.37-1.57-6.86-1.65-10.37-.54-2.7.86-4.72,2.6-5.9,5.22-.76,1.68-.96,3.45-.81,5.27.19,2.33.97,4.39,2.56,6.13.98,1.07,2.1,1.97,3.38,2.62,1.81.92,3.69,1.72,5.52,2.6,1.16.56,2.3,1.14,3.41,1.79.65.38,1.13.97,1.4,1.71.67,1.82-.11,3.64-1.98,4.44-2.05.87-4.13.77-6.17-.04-1.76-.7-2.96-2.04-3.97-3.59-.08-.13-.17-.25-.27-.39-2.07,1.2-4.12,2.39-6.19,3.6Zm-26.84.82c1.26,2.62,3.06,4.64,5.68,5.79,3.55,1.56,7.2,1.6,10.83.31,2.58-.91,4.35-2.73,5.36-5.28.67-1.69.92-3.45.92-5.24.01-8.53,0-17.07.01-25.6,0-.35-.11-.44-.45-.44-2.21.01-4.42,0-6.63,0q-.6,0-.6.59c0,8.3,0,16.59,0,24.89,0,.62-.02,1.24-.09,1.85-.21,1.85-1.1,2.86-2.8,3.18-.31.06-.63.08-.94.09-1.25.03-2.4-.3-3.23-1.26-.6-.69-1.07-1.49-1.6-2.24-.09-.12-.16-.26-.25-.4-2.08,1.26-4.13,2.5-6.21,3.76Z"/>
</svg>