<?xml version="1.0" encoding="UTF-8"?>
<svg id="Camada_1" data-name="Camada 1" xmlns="http://www.w3.org/2000/svg" viewBox="0 0 90 90">
  <defs>
    <style>
      .cls-1 {
        fill: #2186f4;
        stroke-width: 0px;
      }
    </style>
  </defs>
  <path class="cls-1" d="m13.53,54.44c.92.21,1.61.37,2.46.56-.09,1.3-.29,2.58-.24,3.85.22,5.15,2.76,8.91,7.19,11.38.67.37,1.78.44,2.51.17,7.39-2.78,13.24-7.56,17.75-14.01.65-.93,1.24-1.37,2.49-1.36,5.33.05,8.88-3.02,10.96-9.26h6.21c4.41,9.29,8.76,11.23,17.09,7.65,3.1,5.9.74,13.6-5.54,16.49-3.14,1.44-6.71,2.13-10.17,2.61-7.58,1.05-14.43,3.97-21.24,7.22-5.17,2.47-10.41,4.99-15.89,6.57-8.83,2.56-16.73-1.81-18.38-9.85-.63-3.05-.25-6.35-.03-9.52.12-1.65.77-3.31,1.41-4.88,1.03-2.54,2.23-5.01,3.42-7.63Z"/>
  <path class="cls-1" d="m59.68,12.82c-3.61,7.27-7.03,14.16-10.66,21.48-.61-.73-1.19-1.14-1.38-1.69-3.37-9.82-6.69-19.65-10.08-29.65h44.04c-.15.58-.26,1.13-.44,1.65-3.1,9.16-6.2,18.32-9.34,27.46-.23.66-.82,1.2-1.24,1.8-.46-.55-1.06-1.04-1.37-1.67-3.14-6.32-6.24-12.66-9.53-19.38Z"/>
  <path class="cls-1" d="m11.17,44.36c-.02-3.68,2.72-6.5,6.34-6.51,3.6,0,6.45,2.84,6.45,6.45,0,3.54-2.99,6.51-6.49,6.46-3.52-.05-6.28-2.86-6.3-6.4Z"/>
  <path class="cls-1" d="m45.76,37.81c3.72,0,6.39,2.69,6.38,6.44,0,3.67-2.84,6.48-6.46,6.42-3.55-.06-6.27-2.83-6.31-6.4-.03-3.68,2.71-6.46,6.39-6.46Z"/>
  <path class="cls-1" d="m73.96,37.83c3.56.02,6.34,2.78,6.36,6.34.03,3.6-2.89,6.51-6.49,6.46-3.52-.04-6.36-2.9-6.37-6.39,0-3.62,2.84-6.43,6.5-6.41Z"/>
</svg>