<?xml version="1.0" encoding="UTF-8"?>
<svg id="Camada_1" data-name="Camada 1" xmlns="http://www.w3.org/2000/svg" viewBox="0 0 90 90">
  <defs>
    <style>
      .cls-1 {
        fill: #2186f4;
        stroke-width: 0px;
      }
    </style>
  </defs>
  <path class="cls-1" d="m48.18,2.36c7.9,3.15,10.89,8.35,10.19,17.57-.15,1.94-.27,3.91-.13,5.84.24,3.39,1.92,6.11,4.21,8.56,4.95,5.29,8.52,11.36,9.66,18.59.45,2.83.21,5.76.36,8.64.05.88.31,1.77.56,2.63.29,1.02.61,2.03,1.03,3,.44,1.01.85,2.09,1.54,2.92,2.34,2.83,1.61,7.1-1.78,8.49-3,1.23-5.29,3.23-7.57,5.41-1.46,1.4-3.27,2.43-4.92,3.63h-2.84c-1.84-.74-3.5-1.67-4.42-3.59-.16-.33-.73-.57-1.15-.67-4.5-1.02-9.04-1.08-13.57-.26-.66.12-1.38.63-1.81,1.17-2.01,2.45-4.54,3.29-7.59,2.34-2.82-.87-5.6-1.85-8.44-2.61-1.11-.3-2.35-.15-3.53-.19-3.88-.14-5.78-3.09-4.58-6.74.44-1.33.54-2.88.39-4.29-.37-3.37.19-4.64,3.19-6.12.48-.24.96-.47,1.42-.74,1.67-.97,2.56-1.98,2.17-4.35-1.17-7.23,1.53-13.59,5.34-19.55.92-1.44,1.97-2.82,3.05-4.15,3.06-3.76,4.39-8,4.08-12.86-.21-3.24-.29-6.51-.16-9.76.28-6.9,3.71-11,10.41-12.73.11-.03.19-.13.29-.2,1.54,0,3.08,0,4.62,0Zm21.58,60.06c.31-2.06-.48-3.72-1.98-4.65-1.87-1.16-2.24-2.61-2.29-4.64-.09-3.02-.78-5.98-2.63-8.51.1,1.78.43,3.53.55,5.28.12,1.71.03,3.43.03,5.15-.1-.03-.2-.07-.31-.1-3.54-8.08-7.08-16.16-10.67-24.39-1.47.89-3.15,1.86-4.78,2.91-3.7,2.37-5.54,2.32-9.03-.27-.86-.64-1.77-1.2-2.79-1.88-.57,7.24-.62,7.21-4.06,13.49-1.04,1.9-1.91,3.95-2.52,6.03-.69,2.36-1.01,4.83-1.55,7.51-1.74-4.26-1.38-8.41-.43-12.95-4.53,6.7-3.36,13.32,2.8,17.56.97.67,2.01,1.27,2.92,2.01,1.28,1.04,2.62,2.06,3.68,3.3,1.5,1.77,1.15,3.66-.67,5.07-.2.16-.38.35-.53.48.72,1.03,1.56,1.88,1.96,2.89.6,1.53,1.71,2.11,3.17,2.45,4.47,1.04,8.69.19,12.77-1.67.49-.23.86-.9,1.12-1.45,1.65-3.48,1.64-7.26,1.69-10.96.05-3.49,3.04-4.87,4.64-7.23.31-.45,1.57-.5,2.33-.36,2.43.42,4.4,1.66,5.78,3.75.26.4.53.79.8,1.18Zm-38.57,22.03c3.66-.02,5.7-2.85,4.53-5.72-.48-1.18-1.32-2.21-2.02-3.3-1.24-1.93-2.52-3.83-3.75-5.76-.92-1.44-1.68-3-2.73-4.34-1.53-1.96-2.59-1.8-4.34-.09-1.37,1.34-2.94,2.54-4.58,3.52-2.07,1.23-2.2,1.49-2,3.94.13,1.59-.01,3.29-.44,4.83-.66,2.38.2,3.96,2.73,3.85,3.67-.16,6.98.91,10.26,2.32.91.39,1.89.61,2.34.75Zm28.43-21.09l-.52-.07c-.19,1.25-.54,2.5-.52,3.75.04,3.6-.59,7.05-1.9,10.41-.32.82-.51,1.71-.58,2.58-.17,1.89.3,3.57,2.14,4.49,1.81.91,3.61.55,4.91-.83,2.83-2.99,5.81-5.67,9.61-7.44,1.9-.88,1.98-2.65.95-4.36-.93-1.55-1.74-3.19-2.37-4.88-.78-2.09-1.84-2.56-3.71-1.36-3.71,2.39-6.3,1.65-8-2.3Zm-16.47-30.36c.76-.27,1.53-.43,2.18-.8,2-1.14,3.98-2.32,5.92-3.56,1.65-1.06,1.58-2.07-.2-2.95-2.01-1-4.05-1.93-6.08-2.88-1.48-.7-2.85-.46-4.18.46-1.26.88-2.55,1.71-3.85,2.52-1.58.99-1.7,1.97-.21,3.15,1.53,1.21,3.15,2.3,4.77,3.39.47.32,1.07.44,1.65.67Zm7.16-9.97c.25-.03.5-.06.75-.09.22-1.08.56-2.16.63-3.25.19-3.02-1.04-5.11-2.98-5.31-2.27-.23-4.25,1.63-4.8,4.53-.06.33,0,.69,0,1.12.57.11,1.11.22,1.6.32.27-.68.36-1.35.74-1.75.52-.55,1.35-1.32,1.87-1.21.68.16,1.42,1,1.69,1.71.28.77,0,1.74.06,2.62.03.44.3.87.46,1.3Zm-10.7-1.96c1.17-.81,1.16-2.39.06-4.14-.84-1.35-2.21-1.86-3.3-1.19-.34.21-.63.55-.84.89-1.01,1.68-.68,5.18.86,6.79.15-.68.06-1.35.05-2.03-.02-1.11-.25-2.52,1.18-2.8,1.33-.26,1.43,1.1,1.74,2.02.04.11.11.21.24.45Z"/>
  <path class="cls-1" d="m43.96,30.82c-3.29.03-4.89-1.29-6.43-2.7-.18-.17-.11-.61-.15-.93.36-.02.72-.05,1.08-.07.05,0,.1.06.14.1,2.87,2.97,5.85,2.44,8.92.33.58-.4,1.25-.68,1.92-.91.24-.08.76.1.84.29.1.23-.03.79-.22.89-2.29,1.16-4.61,2.27-6.1,2.99Z"/>
</svg>