<?xml version="1.0" encoding="UTF-8"?>
<svg id="Camada_1" data-name="Camada 1" xmlns="http://www.w3.org/2000/svg" viewBox="0 0 90 90">
  <defs>
    <style>
      .cls-1 {
        fill: #2186f4;
        stroke-width: 0px;
      }
    </style>
  </defs>
  <path class="cls-1" d="m6.61,81.1V8.86c.7-1.65,1.87-2.82,3.52-3.52h72.24c2.66,1.12,3.57,3.15,3.56,5.99-.06,22.48-.03,44.96-.03,67.44,0,4.2-1.66,5.86-5.86,5.86-22.48,0-44.96-.03-67.44.03-2.84,0-4.87-.9-5.99-3.56Zm24.25-36.09c0-6.69,0-13.37,0-20.06,0-.8.22-1.67-1.14-1.63-2.64.07-5.28.07-7.92,0-1.24-.03-1.15.74-1.06,1.49.09.74-.55,1.92,1.01,1.9,1.29-.02,2.58.03,3.87,0,.87-.03,1.27.22,1.27,1.18-.02,11.38-.02,22.76,0,34.13,0,.89-.27,1.29-1.21,1.24-1.11-.06-2.24.07-3.34-.03-1.34-.13-1.71.37-1.66,1.68.04,1.17.11,1.84,1.59,1.76,2.34-.13,4.69-.1,7.03,0,1.23.05,1.6-.34,1.59-1.58-.06-6.69-.03-13.37-.03-20.06Zm30.78-.1c0,6.69.03,13.37-.03,20.06-.01,1.31.33,1.74,1.67,1.68,2.22-.11,4.46-.12,6.68,0,1.45.08,1.93-.34,1.87-1.83-.05-1.17-.29-1.73-1.56-1.61-.93.09-1.89-.07-2.81.04-1.47.17-1.87-.39-1.86-1.85.06-10.09.03-20.18.03-30.26q0-4.41,4.33-4.44c.23,0,.47-.02.7,0,1.53.12,1.07-1.02,1.12-1.8.05-.81.19-1.65-1.15-1.59-2.28.09-4.58.13-6.86-.01-1.65-.1-2.2.32-2.17,2.08.11,6.51.05,13.02.05,19.53Zm-15.35,8.37c-2.17-5.26-3.94-10.39-5.4-15.63-.73-2.62-.72-2.54-3.44-2.63-1.6-.05-1.67.46-1.28,1.82,1.99,7,4.7,13.71,7.63,20.36.51,1.16,1.28,1.2,2.24,1.13.99-.06,1.99.31,2.61-1.1,2.81-6.44,5.46-12.93,7.42-19.68.73-2.5.73-2.43-1.84-2.52-1.33-.05-1.98.26-2.26,1.7-.38,1.94-1.03,3.84-1.66,5.72-1.2,3.59-2.33,7.21-4.01,10.84Z"/>
</svg>