<?xml version="1.0" encoding="UTF-8"?>
<svg id="Camada_1" data-name="Camada 1" xmlns="http://www.w3.org/2000/svg" viewBox="0 0 90 90">
  <defs>
    <style>
      .cls-1 {
        fill: #2186f4;
        stroke-width: 0px;
      }
    </style>
  </defs>
  <path class="cls-1" d="m42.4,5.36c-.17.02-.71.07-1.2.11-11.27,1.02-21.82,7.09-28.5,16.44-3.72,5.19-6.1,11.09-7,17.33-.32,2.18-.36,2.82-.36,5.78s.04,3.6.36,5.78c2.16,14.89,12.75,27.4,27.13,32.04,2.57.83,5.29,1.4,8.37,1.74,1.2.13,6.4.13,7.6,0,5.33-.59,9.84-1.91,14.29-4.18.68-.35.81-.44.72-.52-.06-.05-2.97-3.95-6.46-8.66l-6.34-8.57-7.95-11.76c-4.37-6.47-7.97-11.75-8-11.75-.03,0-.06,5.22-.08,11.6-.02,11.17-.03,11.62-.17,11.88-.2.38-.36.53-.68.71-.25.12-.47.15-1.64.15h-1.34l-.36-.22c-.23-.15-.4-.34-.52-.57l-.16-.35.02-15.54.02-15.55.24-.3c.12-.16.39-.37.57-.47.32-.16.44-.17,1.78-.17,1.58,0,1.85.06,2.26.51.12.12,4.42,6.61,9.57,14.41,5.15,7.81,12.19,18.47,15.65,23.7l6.28,9.51.32-.21c2.81-1.83,5.79-4.43,8.15-7.15,5.02-5.76,8.25-12.78,9.34-20.27.32-2.18.36-2.82.36-5.78s-.04-3.6-.36-5.78c-2.16-14.89-12.75-27.4-27.13-32.04-2.54-.82-5.23-1.39-8.26-1.73-.74-.08-5.87-.16-6.51-.1h0Zm16.24,23.99c.37.19.67.54.78.91.06.2.08,4.51.06,14.23l-.02,13.94-2.46-3.77-2.47-3.77v-10.13c0-6.55.03-10.23.08-10.41.12-.43.4-.78.77-.98.32-.16.43-.18,1.65-.18,1.15,0,1.35.02,1.6.16Z"/>
</svg>