<?xml version="1.0" encoding="UTF-8"?>
<svg id="Camada_1" data-name="Camada 1" xmlns="http://www.w3.org/2000/svg" viewBox="0 0 90 90">
  <defs>
    <style>
      .cls-1 {
        fill: #2186f4;
        stroke-width: 0px;
      }
    </style>
  </defs>
  <path class="cls-1" d="m43.63,86.39c.12-.07.06-.13-.02-.17-4.4-2.33-8.65-4.93-12.97-7.41-6.63-3.8-13.22-7.66-19.85-11.46-1.53-.88-2.22-2.14-2.22-3.87.01-5.87,0-11.75,0-17.62,0-6.43.02-12.86-.01-19.28,0-1.77.78-3.05,2.23-3.89,10.65-6.19,21.32-12.36,31.99-18.53.29-.17.6-.3.91-.45,0,0,0-.03-.02-.04-.01-.02-.03-.03-.05-.04.94,0,1.87,0,2.81,0-.19.09-.05.16.03.2,6.86,3.78,13.57,7.81,20.37,11.7,4.19,2.4,8.36,4.84,12.55,7.25,1.35.77,2.02,1.95,2.03,3.46.02,12.52.02,25.03,0,37.55,0,1.7-1.01,2.85-2.41,3.66-6.26,3.63-12.52,7.25-18.79,10.88-4.24,2.45-8.47,4.9-12.71,7.35-.38.22-.77.43-1.16.64.01.01.02.03.03.04.02.01.04.02.05.03h-2.81Zm16.51-44.24c0-2.66,0-5.32,0-7.98,0-.53-.18-.88-.65-1.13-.91-.47-1.79-.99-2.68-1.48-.81-.45-.96-.37-.96.54,0,2.38,0,4.77,0,7.15,0,1.69.05,1.67-1.36.84-.59-.35-1.07-.34-1.66.01-1.64.99-3.3,1.94-4.98,2.88-.49.27-.68.62-.68,1.18.02,1.96.03,3.92,0,5.87,0,.62.24.98.76,1.27,1.67.94,3.33,1.89,4.98,2.88.55.33,1,.3,1.54-.02,1.65-.98,3.3-1.94,4.98-2.87.54-.3.73-.68.72-1.28-.02-2.62-.01-5.24-.01-7.85Zm-30.27,4.84c0,1,.01,2,0,3,0,.47.16.8.58,1.04,1.78,1.01,3.54,2.03,5.31,3.06.41.24.78.24,1.19,0,1.74-1.02,3.49-2.03,5.25-3.03.44-.25.63-.58.63-1.08-.01-2.02,0-4.04,0-6.06,0-.45-.15-.77-.55-.99-1.77-1.01-3.54-2.03-5.31-3.06-.43-.25-.83-.25-1.26,0-1.75,1.02-3.5,2.03-5.25,3.03-.41.24-.6.56-.6,1.04.02,1.02,0,2.04,0,3.06Zm34.59.02c0,1.02.01,2.04,0,3.07,0,.48.19.79.6,1.03,1.74.98,3.48,1.98,5.21,2.99.44.25.83.25,1.26,0,.96-.55,1.94-1.06,2.91-1.6.67-.38.67-.6-.02-.99-1.66-.96-3.32-1.92-4.99-2.85-.45-.25-.64-.54-.62-1.06.07-2.22-.31-1.54,1.55-2.7.43-.27.77-.23,1.23-.02,1.11.51,1.81,1.16,1.57,2.52-.09.54.21.68.71.38.72-.42,1.38-.95,2.14-1.27,1.17-.5,1.52-1.32,1.39-2.53-.06-.52-.21-.87-.67-1.13-1.71-.96-3.41-1.93-5.1-2.93-.48-.28-.89-.28-1.37,0-1.72,1.02-3.46,2.02-5.2,3-.45.25-.62.59-.61,1.09.02,1,0,2,0,3Zm-51.91.94c0,1.4,0,2.81,0,4.21,0,.69.21.81.81.48.95-.53,1.88-1.09,2.83-1.61.47-.25.66-.6.65-1.13-.03-1.17,0-2.34,0-3.51,0-.41.09-.74.45-.99,1.54-1.11,1.6-1.12,3.22-.15.02.01.04.02.06.03.46.21.64.56.63,1.07-.02,1.19,0,2.38,0,3.57,0,.47.16.82.58,1.05.98.55,1.95,1.13,2.94,1.67.6.33.8.21.8-.49,0-2.76,0-5.53,0-8.29,0-.51-.2-.82-.64-1.07-1.74-.98-3.47-1.98-5.19-3-.44-.26-.8-.27-1.24,0-1.74,1.02-3.5,2.02-5.26,3.01-.47.26-.64.61-.63,1.14.02,1.34,0,2.68,0,4.02Zm57.13-1.04c0,.66.68,1.41,1.26,1.38.59-.02,1.21-.72,1.21-1.37,0-.63-.65-1.35-1.23-1.35-.57,0-1.24.72-1.24,1.33Z"/>
  <path class="cls-1" d="m55.81,47.06c-.12.47.2,1.03-.24,1.35-.6.43-1.22,1.04-1.93,1.03-.71,0-1.36-.59-1.92-1.05-.45-.37-.17-1-.19-1.52-.01-.38-.2-.86.2-1.13.61-.41,1.23-1.05,1.93-1.03.69.01,1.33.61,1.92,1.05.44.33.09.89.23,1.29Z"/>
  <path class="cls-1" d="m38.55,47.06c-.11.47.2,1.03-.24,1.35-.61.44-1.26,1.08-1.98,1.06-.71-.02-1.39-.6-1.97-1.09-.42-.36-.17-.97-.18-1.46-.01-.39-.19-.87.18-1.15.61-.45,1.25-1.07,1.98-1.08.73,0,1.37.61,1.98,1.07.44.33.11.89.23,1.3Z"/>
</svg>