<?xml version="1.0" encoding="UTF-8"?>
<svg id="Camada_1" data-name="Camada 1" xmlns="http://www.w3.org/2000/svg" viewBox="0 0 90 90">
  <defs>
    <style>
      .cls-1 {
        fill: #2186f4;
        stroke-width: 0px;
      }
    </style>
  </defs>
  <path class="cls-1" d="m25.48,4.96c1.07,0,2.14,0,3.2,0,.1.03.2.07.3.09,1.07.19,2.1.47,3.12.85,2.14.8,4.1,1.92,5.98,3.2,2.35,1.61,4.52,3.44,6.57,5.41.11.11.23.21.35.32.65-.6,1.26-1.18,1.88-1.73,2.32-2.08,4.77-3.98,7.49-5.52,2.04-1.16,4.18-2.07,6.5-2.5.14-.03.28-.08.41-.12,1.07,0,2.14,0,3.2,0,.16.05.33.11.5.14,2.22.47,3.96,1.66,5.27,3.5.94,1.32,1.52,2.81,1.91,4.37.6,2.42.67,4.89.54,7.36-.15,2.76-.6,5.49-1.23,8.18-.11.46-.21.93-.32,1.38.05.04.07.06.09.07.1.03.2.07.3.1,2.22.65,4.4,1.4,6.52,2.32,2.43,1.06,4.76,2.29,6.85,3.93,1.57,1.23,2.94,2.63,3.91,4.39.79,1.43,1.21,2.96,1.15,4.6-.06,1.65-.58,3.16-1.46,4.56-.97,1.55-2.24,2.81-3.67,3.93-2,1.56-4.22,2.75-6.53,3.77-2.19.97-4.44,1.75-6.74,2.42-.15.04-.29.1-.45.15.03.16.05.28.08.4.63,2.55,1.11,5.13,1.36,7.76.22,2.4.25,4.8-.11,7.19-.26,1.73-.72,3.39-1.57,4.93-1.28,2.34-3.17,3.91-5.81,4.53-.15.04-.31.09-.46.13h-3.52c-.09-.03-.17-.06-.26-.09-.79-.2-1.59-.36-2.36-.62-2.12-.69-4.06-1.75-5.92-2.97-2.57-1.68-4.91-3.64-7.12-5.75-.14-.14-.29-.27-.45-.42-.12.11-.22.2-.32.29-.55.51-1.09,1.03-1.65,1.52-2.31,2.07-4.76,3.96-7.47,5.49-1.95,1.1-3.99,1.99-6.2,2.42-.15.03-.3.08-.45.13h-3.6c-.1-.03-.2-.08-.3-.1-1.51-.33-2.84-.99-3.98-2.03-1.26-1.15-2.1-2.57-2.69-4.16-.74-2-1.02-4.08-1.09-6.2-.08-2.17.11-4.32.41-6.46.27-1.9.66-3.78,1.11-5.65.02-.1.04-.2.06-.33-.17-.05-.32-.1-.47-.14-2.01-.59-3.99-1.26-5.93-2.07-2.42-1.01-4.74-2.2-6.86-3.77-1.61-1.19-3.06-2.54-4.12-4.27-1.89-3.08-1.97-6.21-.18-9.37.64-1.12,1.47-2.1,2.4-2.98,1.62-1.54,3.47-2.75,5.44-3.79,2.91-1.54,5.99-2.68,9.14-3.61.19-.06.38-.12.59-.18-.04-.18-.06-.34-.1-.49-.66-2.69-1.15-5.4-1.38-8.16-.19-2.34-.19-4.67.2-6.98.27-1.62.72-3.17,1.51-4.62,1.32-2.43,3.29-4.02,6.03-4.6.13-.03.25-.08.37-.12Zm17.84,25.56c-1.3.06-3.7.18-6.1.28-.3.01-.48.12-.64.37-2.91,4.32-5.51,8.83-7.8,13.51-.12.25-.12.46,0,.71,2.28,4.66,4.86,9.14,7.75,13.44.19.28.4.42.74.44,1.72.07,3.44.19,5.16.23,3.44.09,6.89,0,10.32-.23.3-.02.5-.12.68-.38,2.89-4.3,5.48-8.78,7.76-13.44.15-.31.14-.55-.01-.85-2.24-4.57-4.78-8.97-7.61-13.2-.26-.38-.5-.67-1.01-.6-.12.02-.24-.02-.36-.03-2.6-.16-5.2-.23-8.9-.24Zm-20.67,30.55c-.05.2-.1.35-.14.51-.28,1.34-.58,2.68-.82,4.03-.41,2.3-.62,4.63-.54,6.97.05,1.34.2,2.66.56,3.95.31,1.11.75,2.17,1.51,3.06.82.96,1.86,1.49,3.11,1.63,1.16.13,2.29-.06,3.39-.38,1.77-.51,3.39-1.35,4.95-2.32,2.72-1.69,5.16-3.74,7.46-5.96.05-.04.08-.1.13-.17-.1-.11-.18-.21-.27-.31-.48-.54-.96-1.07-1.44-1.62-2.01-2.32-3.9-4.74-5.68-7.24-.14-.2-.29-.31-.54-.33-.85-.08-1.7-.18-2.54-.28-2.48-.29-4.94-.68-7.38-1.18-.57-.12-1.14-.24-1.76-.37Zm25.1-43.42c.57.65,1.14,1.27,1.69,1.9,2.02,2.32,3.9,4.73,5.68,7.24.16.22.33.34.61.37.7.05,1.41.14,2.11.22,2.73.31,5.44.74,8.13,1.3.45.09.91.19,1.39.29.04-.15.08-.28.12-.4.75-3.04,1.28-6.1,1.39-9.24.07-2-.05-3.97-.59-5.91-.26-.94-.64-1.84-1.22-2.64-.78-1.08-1.83-1.73-3.15-1.93-1.08-.16-2.13-.03-3.17.23-1.8.46-3.45,1.27-5.03,2.22-2.7,1.63-5.11,3.62-7.4,5.78-.18.17-.35.36-.55.57Zm-.02,54.77c.38.36.74.71,1.1,1.04,2.14,1.98,4.4,3.81,6.91,5.31,1.63.98,3.33,1.8,5.19,2.24,1.01.24,2.02.35,3.05.17,1.59-.27,2.71-1.19,3.48-2.57.59-1.05.91-2.19,1.12-3.36.39-2.24.35-4.49.14-6.74-.23-2.39-.68-4.75-1.26-7.08-.03-.11-.07-.22-.11-.35-.11.02-.21.03-.29.05-2.53.55-5.07,1.01-7.64,1.33-1.22.15-2.44.29-3.66.42-.31.03-.5.16-.67.4-2.21,3.1-4.58,6.07-7.15,8.88-.06.07-.12.14-.21.25Zm-27.81-16.07c.05-.13.09-.22.13-.32,1.15-3.64,2.54-7.19,4.13-10.66.12-.26.11-.46,0-.71-1.58-3.46-2.97-6.99-4.12-10.62-.04-.11-.08-.22-.13-.34-.1.02-.18.03-.25.05-2.61.75-5.15,1.65-7.6,2.83-1.77.85-3.47,1.84-4.98,3.1-.99.83-1.88,1.74-2.51,2.88-.9,1.62-.91,3.25-.02,4.88.48.88,1.12,1.62,1.84,2.31,1.37,1.29,2.94,2.29,4.6,3.17,2.61,1.37,5.35,2.39,8.17,3.22.24.07.48.13.74.21Zm50.17,0c.12-.03.2-.04.28-.06,2.5-.73,4.95-1.58,7.31-2.7,1.86-.88,3.65-1.89,5.24-3.21,1-.83,1.9-1.76,2.53-2.91.9-1.63.9-3.26,0-4.88-.4-.73-.92-1.38-1.5-1.97-1.3-1.31-2.81-2.33-4.42-3.22-2.9-1.6-5.99-2.73-9.16-3.64-.09-.02-.18-.03-.28-.05-.05.13-.09.24-.13.35-1.14,3.6-2.52,7.11-4.09,10.55-.13.29-.14.52,0,.82,1.37,2.98,2.59,6.03,3.63,9.14.2.58.38,1.16.58,1.78Zm-27.81-38.71c-.08-.09-.15-.18-.22-.25-1.74-1.68-3.57-3.25-5.54-4.66-1.67-1.19-3.41-2.25-5.31-3.02-1.43-.58-2.9-1-4.47-.93-1.55.07-2.8.7-3.73,1.95-.46.62-.79,1.3-1.04,2.02-.55,1.55-.75,3.16-.8,4.79-.05,1.58.04,3.15.22,4.71.25,2.18.67,4.32,1.2,6.44.02.08.06.16.1.25.1-.02.18-.03.26-.05,1.94-.36,3.87-.76,5.82-1.07,1.8-.28,3.62-.48,5.44-.68.34-.04.55-.15.75-.42,2.19-3.08,4.54-6.03,7.09-8.82.08-.09.15-.18.24-.28Zm2.77,2.82c-.77.6-5,5.71-5.19,6.29.7-.03,1.39-.06,2.08-.07.69-.02,1.39-.02,2.08-.03.68,0,1.36,0,2.04,0,.69,0,1.39.02,2.08.02.68,0,1.36.11,2.11.04-1.67-2.2-3.38-4.28-5.21-6.25Zm-21.3,36.86c2.66.59,5.31,1.05,8.08,1.39-1.91-3-3.63-5.98-5.23-9.06-.44.65-2.64,6.58-2.85,7.67Zm34.53-25.94c1.8,2.91,3.5,5.85,5.07,8.86.01.02.03.04.05.06,0,0,.02.02.03.02.01,0,.03,0,.08,0,1.03-2.47,1.99-4.99,2.79-7.61-2.68-.6-5.33-1.05-8.02-1.34Zm-.08,27.33c2.78-.35,5.44-.79,8.07-1.39-.13-.95-2.43-7.13-2.85-7.65-1.6,3.07-3.33,6.06-5.22,9.04Zm-26.42-27.3c-.09-.03-.13-.05-.16-.05-.22.02-.45.05-.67.08-2.33.3-4.63.71-6.92,1.21-.1.02-.19.07-.29.11.82,2.6,1.75,5.12,2.84,7.68,1.63-3.13,3.35-6.11,5.21-9.04Zm8.06,31.92c1.61,2.19,3.32,4.27,5.15,6.26.07-.06.13-.1.17-.14,1.72-1.88,3.34-3.84,4.89-5.87.05-.06.09-.13.13-.2,0,0,0-.03,0-.04,0-.01-.01-.02-.04-.05-3.41.16-6.85.15-10.29.04Z"/>
  <path class="cls-1" d="m44.99,53.02c-4.43,0-7.98-3.57-7.99-7.99,0-4.44,3.58-8.02,8.01-8.02,4.42,0,8.01,3.61,8,8.04-.01,4.41-3.6,7.97-8.02,7.97Z"/>
</svg>