<?xml version="1.0" encoding="UTF-8"?>
<svg id="Camada_1" data-name="Camada 1" xmlns="http://www.w3.org/2000/svg" viewBox="0 0 90 90">
  <defs>
    <style>
      .cls-1 {
        fill: #2186f4;
        stroke-width: 0px;
      }
    </style>
  </defs>
  <path class="cls-1" d="m79.24,44.05c-4.06-1.66-5.3-4.97-5.41-8.79-.14-5.28-.05-10.56-.06-15.85,0-1.03-.08-2.04-.31-3.05-.54-2.33-1.96-3.78-4.33-4.26-1.03-.21-2.07-.32-3.13-.33-1.02,0-1.46-.35-1.7-1.35-.25-1.06-.24-2.14.04-3.2.18-.67.58-1.2,1.31-1.19,3.26,0,6.46.31,9.4,1.89,3.07,1.65,4.46,4.39,5,7.69.2,1.26.24,2.53.25,3.8.05,5.42-.09,10.84.08,16.26,0,.3.04.61.06.91.19,2.78,1.77,4.24,4.43,4.79,1.87.39,2.46,1.3,2.31,3.12-.1,1.14-.64,1.82-1.74,2.16-.21.07-.43.12-.64.18-3.11.81-4.21,2.15-4.4,5.37-.06,1.1-.08,2.21-.09,3.32-.05,5.75.09,11.5-.08,17.26-.04,1.39-.33,2.74-.77,4.06-1.22,3.64-3.96,5.53-7.51,6.45-1.96.51-3.97.68-6,.69-.88,0-1.41-.42-1.62-1.24-.27-1.06-.28-2.14,0-3.2.25-1,.68-1.33,1.71-1.33.97,0,1.93-.07,2.88-.27,2.87-.62,4.34-2.21,4.7-5.14.1-.79.14-1.6.15-2.4.01-5.42.01-10.84,0-16.26,0-1.64.17-3.25.69-4.82.72-2.21,2.07-3.88,4.16-4.93.17-.08.33-.19.62-.35Z"/>
  <path class="cls-1" d="m10.75,44.05c.43.24.77.41,1.09.6,2.55,1.49,3.7,3.85,4.17,6.64.16.93.2,1.87.2,2.81,0,5.37,0,10.73,0,16.1,0,1.05.03,2.1.25,3.14.61,2.95,2.03,4.27,5.01,4.7.85.12,1.7.21,2.56.18.88-.03,1.41.41,1.61,1.24.28,1.12.3,2.25-.01,3.36-.18.66-.61,1.15-1.35,1.15-3.09.02-6.13-.3-8.97-1.67-3.35-1.63-4.88-4.49-5.42-8.03-.21-1.37-.23-2.76-.23-4.14-.01-5.2,0-10.4,0-15.6,0-1.22-.05-2.43-.26-3.64-.34-1.96-1.4-3.27-3.35-3.8-.53-.15-1.07-.29-1.59-.45-1.15-.36-1.68-1.17-1.68-2.55,0-1.37.55-2.2,1.68-2.56.26-.08.53-.14.8-.21,3.13-.82,4.13-2.06,4.32-5.31.12-2.05.06-4.09.08-6.14.04-4.18-.08-8.35.08-12.53.05-1.22.27-2.41.6-3.59,1.23-4.33,4.39-6.37,8.54-7.24,1.65-.35,3.34-.48,5.02-.5,1.08-.01,1.51.31,1.76,1.36.25,1.03.26,2.09-.01,3.12-.25.95-.7,1.27-1.67,1.28-.97,0-1.93.08-2.88.28-3.01.62-4.43,2.17-4.75,5.24-.09.91-.14,1.82-.14,2.73-.01,4.7-.01,9.4,0,14.11,0,1.76-.21,3.47-.81,5.13-.82,2.26-2.34,3.84-4.65,4.78Z"/>
  <path class="cls-1" d="m45.43,31.55c-5.06,0-10.12,0-15.18,0-1,0-1.8-.35-2.25-1.27-.42-.86-.33-1.72.26-2.5.54-.7,1.29-.88,2.13-.88,5.64.01,11.28,0,16.92,0,4.48,0,8.96,0,13.44,0,1.13,0,1.99.59,2.33,1.53.32.89.03,1.95-.7,2.56-.52.44-1.12.54-1.78.54-5.06,0-10.12,0-15.18,0Z"/>
  <path class="cls-1" d="m49.97,41.51c-3.51,0-7.02,0-10.53,0-.96,0-1.73-.39-2.15-1.28-.41-.87-.32-1.73.28-2.5.45-.58,1.08-.86,1.81-.86,7.05,0,14.1-.01,21.15,0,1.4,0,2.35,1.01,2.33,2.37-.02,1.31-.97,2.25-2.35,2.26-3.51.02-7.02,0-10.53,0Z"/>
  <path class="cls-1" d="m49.97,51.46c-3.51,0-7.02,0-10.53,0-.96,0-1.73-.39-2.15-1.28-.41-.87-.32-1.73.28-2.49.45-.58,1.08-.85,1.81-.85,7.05,0,14.1-.01,21.15,0,1.4,0,2.35,1.01,2.33,2.37-.02,1.31-.97,2.25-2.35,2.26-3.51.02-7.02,0-10.53,0Z"/>
  <path class="cls-1" d="m49.93,61.42c-3.48,0-6.97,0-10.45,0-1.25,0-2.15-.7-2.37-1.78-.31-1.49.69-2.83,2.22-2.84,7.08-.02,14.15-.02,21.23,0,1.35,0,2.29,1.01,2.29,2.32,0,1.32-.94,2.29-2.31,2.3-3.54.02-7.08,0-10.61,0Z"/>
  <path class="cls-1" d="m32.32,39.16c.01,1.31-.98,2.34-2.26,2.34-1.27,0-2.27-.97-2.29-2.24-.03-1.3.96-2.36,2.23-2.39,1.27-.03,2.31,1,2.32,2.29Z"/>
  <path class="cls-1" d="m32.32,49.18c-.01,1.27-1,2.27-2.24,2.28-1.31.01-2.32-1-2.31-2.3,0-1.31,1.02-2.34,2.29-2.33,1.27,0,2.27,1.05,2.26,2.35Z"/>
  <path class="cls-1" d="m32.32,59.15c-.01,1.27-1,2.26-2.25,2.27-1.31,0-2.31-1-2.3-2.31.01-1.31,1.03-2.34,2.3-2.32,1.27.01,2.27,1.05,2.25,2.36Z"/>
</svg>