<?xml version="1.0" encoding="UTF-8"?>
<svg id="Camada_1" data-name="Camada 1" xmlns="http://www.w3.org/2000/svg" viewBox="0 0 90 90">
  <defs>
    <style>
      .cls-1 {
        fill: #2186f4;
        stroke-width: 0px;
      }
    </style>
  </defs>
  <path class="cls-1" d="m85.4,11.69v66.58c-.04.27-.07.54-.13.81-.74,3.65-3.99,6.32-7.73,6.32-21.67,0-43.34,0-65.01,0-2.7,0-4.87-1.16-6.47-3.35-1.03-1.42-1.48-3.04-1.48-4.78,0-21.42,0-42.83,0-64.25,0-.48.03-.97.08-1.45.38-3.39,2.96-6.17,6.3-6.83.24-.05.49-.09.73-.14,22.19,0,44.39,0,66.58,0,.1.02.2.05.31.06,3.3.44,6.01,2.97,6.66,6.22.05.27.09.54.13.81Zm-30.72,57.28c-.02.22-.03.34-.03.45,0,2.3,0,4.6,0,6.9,0,.35.13.54.44.65.83.29,1.64.64,2.49.88,1.76.5,3.58.72,5.41.83,2.32.13,4.62,0,6.91-.44,1.77-.35,3.45-.95,4.94-1.98,1.89-1.31,3.14-3.07,3.67-5.33.29-1.24.34-2.5.25-3.76-.08-1.15-.35-2.26-.85-3.3-.69-1.45-1.74-2.59-3-3.55-1.19-.91-2.49-1.62-3.84-2.24-1.17-.54-2.37-1.02-3.53-1.57-.86-.41-1.7-.88-2.53-1.37-.56-.33-1.03-.77-1.45-1.27-.92-1.11-.97-2.95.41-4.09.53-.43,1.12-.73,1.77-.93,1.02-.33,2.08-.45,3.15-.44,2.85.05,5.54.72,8,2.22.08.05.18.07.31.13.02-.17.04-.28.04-.4,0-2.14,0-4.29,0-6.43,0-.4-.02-.44-.41-.56-.79-.24-1.59-.48-2.39-.66-1.45-.33-2.93-.44-4.42-.51-2.24-.11-4.47.02-6.66.51-1.91.43-3.69,1.14-5.25,2.35-1.82,1.42-3,3.26-3.4,5.55-.17.95-.21,1.9-.14,2.87.18,2.59,1.26,4.72,3.19,6.43,1.36,1.21,2.93,2.09,4.59,2.81,1.12.49,2.26.94,3.36,1.46.85.4,1.68.88,2.49,1.35.56.33,1.03.77,1.45,1.27,1.31,1.58.97,3.64-.78,4.71-.54.33-1.13.55-1.75.7-1.64.39-3.29.37-4.94.11-2.63-.41-4.99-1.44-7.08-3.08-.1-.08-.21-.14-.39-.27Zm-21.34-5.14c0,4.55,0,9.1,0,13.65,0,.14,0,.29,0,.43.02.29.06.33.36.35.12,0,.24,0,.35,0,2.17,0,4.34,0,6.51,0,.8,0,.79.1.79-.79,0-9.12,0-18.25,0-27.37,0-.74-.05-.7.72-.7,2.94,0,5.89,0,8.83,0,.57,0,.57,0,.57-.57,0-1.76,0-3.52,0-5.28,0-.6,0-.6-.62-.6-8.99,0-17.99,0-26.98,0-.11,0-.21,0-.32,0-.19,0-.29.1-.3.29,0,.12,0,.24,0,.35,0,1.71,0,3.42,0,5.13q0,.68.66.68c2.91,0,5.81,0,8.72,0,.76,0,.71-.03.71.71,0,4.57,0,9.15,0,13.72Z"/>
</svg>