<?xml version="1.0" encoding="UTF-8"?>
<svg id="Camada_1" data-name="Camada 1" xmlns="http://www.w3.org/2000/svg" viewBox="0 0 36.64 36.64">
  <defs>
    <style>
      .cls-1 {
        fill: #fff;
        stroke-width: 0px;
      }
    </style>
  </defs>
  <path class="cls-1" d="m27.39,0H9.24C4.15,0,0,4.15,0,9.24v18.15c0,5.1,4.15,9.24,9.24,9.24h18.15c5.1,0,9.24-4.15,9.24-9.24V9.24c0-5.1-4.15-9.24-9.24-9.24Zm5.25,27.39c0,2.9-2.36,5.25-5.25,5.25H9.24c-2.9,0-5.25-2.36-5.25-5.25V9.24c0-2.9,2.36-5.25,5.25-5.25h18.15c2.9,0,5.25,2.36,5.25,5.25v18.15Z"/>
  <path class="cls-1" d="m18.32,8.88c-5.2,0-9.43,4.23-9.43,9.43s4.23,9.44,9.43,9.44,9.44-4.23,9.44-9.44-4.23-9.43-9.44-9.43Zm0,14.88c-3,0-5.45-2.44-5.45-5.45s2.44-5.45,5.45-5.45,5.45,2.44,5.45,5.45-2.44,5.45-5.45,5.45Z"/>
  <circle class="cls-1" cx="28.06" cy="8.6" r="2.23"/>
</svg>