<?xml version="1.0" encoding="UTF-8"?>
<svg id="Camada_1" data-name="Camada 1" xmlns="http://www.w3.org/2000/svg" viewBox="0 0 36.64 36.5">
  <defs>
    <style>
      .cls-1 {
        fill: #fff;
        stroke-width: 0px;
      }
    </style>
  </defs>
  <path class="cls-1" d="m0,29.95V6.54C.8,2.97,2.99.8,6.56,0h23.51c3.58.8,5.77,2.97,6.56,6.54v23.41c-.17.13-.12.32-.16.49-.75,3.48-3.76,6.02-7.33,6.04-7.21.04-14.43.04-21.64,0-3.57-.02-6.58-2.55-7.34-6.04-.04-.17,0-.36-.16-.49Zm19.84-15.2c0-.82-.02-1.44,0-2.07.02-.39-.1-.53-.51-.52-1.19.02-2.39.03-3.59,0-.43,0-.52.17-.49.54.02.35,0,.71,0,1.06,0,4.79.01,9.57-.02,14.36,0,.65.18.81.8.78,1.04-.05,2.09-.04,3.13,0,.53.02.68-.13.68-.67-.03-2.53-.01-5.07-.01-7.6,0-.77.09-1.51.45-2.21.59-1.18,1.69-1.81,2.97-1.71,1.13.09,2.04.87,2.45,2.09.2.61.25,1.24.24,1.87,0,2.53,0,5.07,0,7.6,0,.43.06.64.57.62,1.17-.04,2.34-.03,3.51,0,.4,0,.52-.12.52-.52-.02-3.44.04-6.89-.04-10.33-.07-3.33-2.04-5.58-5.05-5.84-2.23-.19-4.09.58-5.61,2.54Zm-7.63,5.82c0-2.58-.02-5.16.01-7.75,0-.54-.16-.68-.68-.66-1.12.04-2.24.03-3.35,0-.42,0-.57.11-.56.55.01,5.21.01,10.43,0,15.64,0,.44.14.56.56.55,1.12-.03,2.24-.04,3.35,0,.53.02.69-.12.68-.66-.03-2.56-.01-5.11-.01-7.67Zm.36-12.99c.01-1.48-1.17-2.69-2.63-2.7-1.46-.01-2.66,1.18-2.68,2.65-.01,1.49,1.15,2.67,2.63,2.68,1.49,0,2.66-1.14,2.67-2.64Z"/>
</svg>