<?xml version="1.0" encoding="UTF-8"?>
<svg id="Camada_1" data-name="Camada 1" xmlns="http://www.w3.org/2000/svg" viewBox="0 0 38.86 30.68">
  <defs>
    <style>
      .cls-1 {
        fill: #fff;
        stroke-width: 0px;
      }
    </style>
  </defs>
  <path class="cls-1" d="m19.44,0c5.12,0,10.24-.02,15.37.01,1.71.01,2.94.87,3.69,2.41.25.5.35,1.05.35,1.61,0,7.54,0,15.08,0,22.62,0,2.18-1.8,3.98-3.98,4.02-.8.02-1.6,0-2.4,0-9.42,0-18.85,0-28.27,0-2.01,0-3.66-1.27-4.1-3.18C.03,27.2,0,26.89,0,26.58c0-7.5,0-14.99,0-22.49C0,1.83,1.8.01,4.08,0c5.12-.01,10.24,0,15.37,0Zm15.32,7.77c-.11.09-.16.13-.2.18-3.03,2.87-6.07,5.74-9.1,8.6-1.35,1.28-2.7,2.57-4.08,3.82-.66.6-1.45.96-2.37.98-1.19.03-2.1-.54-2.9-1.33-3.93-3.88-7.85-7.75-11.77-11.63-.06-.06-.11-.16-.25-.17v.32c0,5.89,0,11.78,0,17.67,0,.3.06.38.38.38,9.98,0,19.96,0,29.94,0,.32,0,.37-.09.37-.39,0-6.02,0-12.03,0-18.05v-.38ZM5.82,4.1c.1.11.15.17.21.23,4.24,4.19,8.49,8.38,12.72,12.57.16.16.24.15.4,0,4.44-4.2,8.88-8.4,13.32-12.6.05-.05.15-.08.12-.2H5.82Z"/>
</svg>