<?xml version="1.0" encoding="UTF-8"?>
<svg id="Camada_1" data-name="Camada 1" xmlns="http://www.w3.org/2000/svg" viewBox="0 0 486.06 27.26">
  <defs>
    <style>
      .cls-1 {
        fill: #2186f4;
      }

      .cls-1, .cls-2 {
        stroke-width: 0px;
      }

      .cls-2 {
        fill: #fff;
      }
    </style>
  </defs>
  <g>
    <g>
      <path class="cls-1" d="m24.98,26.22V0h9.7c1.55,0,2.94.29,4.18.88,1.24.59,2.22,1.43,2.94,2.53.72,1.1,1.09,2.43,1.09,4.01v.45c0,1.57-.37,2.92-1.1,4.03-.74,1.11-1.72,1.95-2.96,2.53-1.24.57-2.62.86-4.14.86h-7.3v10.94h-2.4Zm2.4-13.11h7.04c1.87,0,3.35-.46,4.44-1.39,1.09-.92,1.63-2.22,1.63-3.89v-.37c0-1.7-.53-3-1.59-3.91-1.06-.91-2.55-1.37-4.48-1.37h-7.04v10.94Z"/>
      <path class="cls-1" d="m55.16,26.74c-1.85,0-3.46-.39-4.85-1.18-1.39-.79-2.46-1.88-3.22-3.3-.76-1.41-1.14-3.05-1.14-4.92v-.45c0-1.87.38-3.51,1.14-4.92.76-1.41,1.84-2.51,3.22-3.3,1.39-.79,3-1.18,4.85-1.18s3.46.39,4.85,1.18,2.46,1.89,3.22,3.3c.76,1.41,1.14,3.05,1.14,4.92v.45c0,1.87-.38,3.51-1.14,4.92-.76,1.41-1.83,2.51-3.22,3.3s-3,1.18-4.85,1.18Zm0-2.02c2.15,0,3.84-.68,5.09-2.04,1.25-1.36,1.87-3.16,1.87-5.41v-.3c0-2.25-.62-4.05-1.87-5.41-1.25-1.36-2.95-2.04-5.09-2.04s-3.81.68-5.07,2.04c-1.26,1.36-1.89,3.16-1.89,5.41v.3c0,2.25.63,4.05,1.89,5.41,1.26,1.36,2.95,2.04,5.07,2.04Z"/>
      <path class="cls-1" d="m70.07,26.22V8.02h2.17v2.28h.45c.35-.82.87-1.42,1.55-1.8.69-.37,1.64-.56,2.87-.56h2.13v2.1h-2.4c-1.37,0-2.47.39-3.3,1.16-.82.77-1.24,1.99-1.24,3.63v11.38h-2.25Z"/>
      <path class="cls-1" d="m90.48,26.22c-.97,0-1.7-.25-2.19-.75-.49-.5-.73-1.2-.73-2.1v-13.33h-5.84v-2.02h5.84V1.2h2.25v6.82h6.37v2.02h-6.37v13.03c0,.75.37,1.12,1.12,1.12h4.27v2.02h-4.72Z"/>
      <path class="cls-1" d="m103.81,26.22V10.04h-5.99v-2.02h5.99V2.85c0-.9.24-1.6.73-2.1C105.03.25,105.76,0,106.73,0h4.49v2.02h-4.04c-.75,0-1.12.37-1.12,1.12v4.87h6.14v2.02h-6.14v16.18h-2.25Z"/>
      <path class="cls-1" d="m123.92,26.74c-1.85,0-3.46-.39-4.85-1.18s-2.46-1.88-3.22-3.3c-.76-1.41-1.14-3.05-1.14-4.92v-.45c0-1.87.38-3.51,1.14-4.92.76-1.41,1.83-2.51,3.22-3.3s3-1.18,4.85-1.18,3.46.39,4.85,1.18c1.39.79,2.46,1.89,3.22,3.3.76,1.41,1.14,3.05,1.14,4.92v.45c0,1.87-.38,3.51-1.14,4.92-.76,1.41-1.84,2.51-3.22,3.3-1.39.79-3,1.18-4.85,1.18Zm0-2.02c2.15,0,3.85-.68,5.09-2.04,1.25-1.36,1.87-3.16,1.87-5.41v-.3c0-2.25-.62-4.05-1.87-5.41-1.25-1.36-2.95-2.04-5.09-2.04s-3.81.68-5.07,2.04c-1.26,1.36-1.89,3.16-1.89,5.41v.3c0,2.25.63,4.05,1.89,5.41,1.26,1.36,2.95,2.04,5.07,2.04Zm-1.61-19.32l2.92-4.94h2.85l-3.45,4.94h-2.32Z"/>
      <path class="cls-1" d="m138.83,26.22V0h2.25v26.22h-2.25Z"/>
      <path class="cls-1" d="m148.79,4.87c-.55,0-1.01-.19-1.39-.56-.37-.37-.56-.84-.56-1.39s.19-1.04.56-1.4c.37-.36.84-.54,1.39-.54s1.04.18,1.4.54c.36.36.54.83.54,1.4s-.18,1.01-.54,1.39-.83.56-1.4.56Zm-1.12,21.35V8.02h2.25v18.2h-2.25Z"/>
      <path class="cls-1" d="m164.82,26.74c-1.85,0-3.46-.39-4.85-1.18s-2.46-1.88-3.22-3.3c-.76-1.41-1.14-3.05-1.14-4.92v-.45c0-1.87.38-3.51,1.14-4.92.76-1.41,1.83-2.51,3.22-3.3s3-1.18,4.85-1.18,3.46.39,4.85,1.18c1.39.79,2.46,1.89,3.22,3.3.76,1.41,1.14,3.05,1.14,4.92v.45c0,1.87-.38,3.51-1.14,4.92-.76,1.41-1.84,2.51-3.22,3.3-1.39.79-3,1.18-4.85,1.18Zm0-2.02c2.15,0,3.85-.68,5.09-2.04,1.25-1.36,1.87-3.16,1.87-5.41v-.3c0-2.25-.62-4.05-1.87-5.41-1.25-1.36-2.95-2.04-5.09-2.04s-3.81.68-5.07,2.04c-1.26,1.36-1.89,3.16-1.89,5.41v.3c0,2.25.63,4.05,1.89,5.41,1.26,1.36,2.95,2.04,5.07,2.04Z"/>
    </g>
    <g>
      <g>
        <path class="cls-2" d="m199.77,26.74v-4.34h3.45V4.87h-3.45V.52h10.79c3.52,0,6.2.89,8.03,2.68,1.84,1.79,2.75,4.44,2.75,7.96v4.94c0,3.52-.92,6.17-2.75,7.96-1.84,1.79-4.51,2.68-8.03,2.68h-10.79Zm8.39-4.49h2.47c2,0,3.46-.52,4.38-1.57.92-1.05,1.39-2.52,1.39-4.42v-5.24c0-1.92-.46-3.4-1.39-4.44-.92-1.04-2.38-1.55-4.38-1.55h-2.47v17.23Z"/>
        <path class="cls-2" d="m234.08,27.26c-1.85,0-3.48-.39-4.89-1.18-1.41-.79-2.51-1.9-3.3-3.33-.79-1.44-1.18-3.13-1.18-5.07v-.45c0-1.95.39-3.64,1.16-5.07.77-1.44,1.86-2.55,3.26-3.33,1.4-.79,3.02-1.18,4.87-1.18s3.41.41,4.76,1.22c1.35.81,2.4,1.94,3.15,3.37.75,1.44,1.12,3.1,1.12,5v1.61h-13.52c.05,1.27.52,2.31,1.42,3.11.9.8,2,1.2,3.3,1.2s2.3-.29,2.92-.86c.62-.57,1.1-1.21,1.42-1.91l3.86,2.02c-.35.65-.86,1.35-1.52,2.12-.66.76-1.54,1.41-2.64,1.95-1.1.54-2.5.81-4.19.81Zm-4.53-11.95h8.69c-.1-1.07-.53-1.93-1.29-2.58-.76-.65-1.75-.97-2.98-.97s-2.28.32-3.03.97c-.75.65-1.21,1.51-1.39,2.58Z"/>
        <path class="cls-2" d="m247.22,26.74V8.16h4.64v2.43h.67c.3-.65.86-1.27,1.68-1.85.82-.59,2.07-.88,3.75-.88,1.45,0,2.71.33,3.8.99,1.09.66,1.93,1.57,2.53,2.73.6,1.16.9,2.52.9,4.06v11.09h-4.72v-10.71c0-1.4-.34-2.45-1.03-3.15-.69-.7-1.67-1.05-2.94-1.05-1.45,0-2.57.48-3.37,1.44-.8.96-1.2,2.3-1.2,4.03v9.44h-4.72Z"/>
        <path class="cls-2" d="m270.29,26.74V8.16h4.64v2.43h.67c.3-.65.86-1.27,1.69-1.85.82-.59,2.07-.88,3.75-.88,1.45,0,2.71.33,3.8.99,1.09.66,1.93,1.57,2.53,2.73.6,1.16.9,2.52.9,4.06v11.09h-4.72v-10.71c0-1.4-.34-2.45-1.03-3.15-.69-.7-1.67-1.05-2.94-1.05-1.45,0-2.57.48-3.37,1.44-.8.96-1.2,2.3-1.2,4.03v9.44h-4.72Z"/>
        <path class="cls-2" d="m301.83,27.26c-1.85,0-3.48-.39-4.89-1.18-1.41-.79-2.51-1.9-3.3-3.33-.79-1.44-1.18-3.13-1.18-5.07v-.45c0-1.95.39-3.64,1.16-5.07.77-1.44,1.86-2.55,3.26-3.33s3.02-1.18,4.87-1.18,3.41.41,4.76,1.22c1.35.81,2.4,1.94,3.15,3.37.75,1.44,1.12,3.1,1.12,5v1.61h-13.52c.05,1.27.52,2.31,1.42,3.11.9.8,2,1.2,3.3,1.2s2.3-.29,2.92-.86c.62-.57,1.1-1.21,1.42-1.91l3.86,2.02c-.35.65-.86,1.35-1.52,2.12-.66.76-1.54,1.41-2.64,1.95-1.1.54-2.5.81-4.19.81Zm-4.53-11.95h8.69c-.1-1.07-.53-1.93-1.29-2.58-.76-.65-1.75-.97-2.98-.97s-2.28.32-3.03.97c-.75.65-1.21,1.51-1.39,2.58Z"/>
        <path class="cls-2" d="m314.97,26.74V8.16h4.64v2.1h.67c.27-.75.73-1.3,1.37-1.65.64-.35,1.38-.52,2.23-.52h2.25v4.19h-2.32c-1.2,0-2.19.32-2.96.95-.77.64-1.16,1.62-1.16,2.94v10.56h-4.72Z"/>
      </g>
      <g>
        <path class="cls-2" d="m342.09,27.26c-3.3,0-5.92-.9-7.86-2.72-1.95-1.81-2.92-4.4-2.92-7.77v-6.29c0-3.37.97-5.96,2.92-7.77,1.95-1.81,4.57-2.72,7.86-2.72s5.92.91,7.86,2.72c1.95,1.81,2.92,4.4,2.92,7.77v6.29c0,3.37-.97,5.96-2.92,7.77-1.95,1.81-4.57,2.72-7.86,2.72Zm0-4.42c1.85,0,3.28-.54,4.31-1.61,1.02-1.07,1.53-2.51,1.53-4.31v-6.59c0-1.8-.51-3.23-1.53-4.31-1.02-1.07-2.46-1.61-4.31-1.61s-3.25.54-4.29,1.61c-1.04,1.07-1.55,2.51-1.55,4.31v6.59c0,1.8.52,3.23,1.55,4.31,1.04,1.07,2.47,1.61,4.29,1.61Z"/>
        <path class="cls-2" d="m357.37,26.74V.52h4.72v26.22h-4.72Z"/>
        <path class="cls-2" d="m369.69,5.99c-.85,0-1.57-.27-2.15-.82-.59-.55-.88-1.27-.88-2.17s.29-1.62.88-2.17c.59-.55,1.3-.82,2.15-.82s1.6.28,2.17.82c.57.55.86,1.27.86,2.17s-.29,1.62-.86,2.17c-.57.55-1.3.82-2.17.82Zm-2.36,20.75V8.16h4.72v18.58h-4.72Z"/>
        <path class="cls-2" d="m381.19,26.74l-5.92-18.58h5.02l4.31,15.13h.67l4.31-15.13h5.02l-5.92,18.58h-7.49Z"/>
        <path class="cls-2" d="m405.76,27.26c-1.85,0-3.48-.39-4.89-1.18-1.41-.79-2.51-1.9-3.3-3.33-.79-1.44-1.18-3.13-1.18-5.07v-.45c0-1.95.39-3.64,1.16-5.07.77-1.44,1.86-2.55,3.26-3.33,1.4-.79,3.02-1.18,4.87-1.18s3.41.41,4.76,1.22c1.35.81,2.4,1.94,3.15,3.37.75,1.44,1.12,3.1,1.12,5v1.61h-13.52c.05,1.27.52,2.31,1.42,3.11.9.8,2,1.2,3.3,1.2s2.3-.29,2.92-.86c.62-.57,1.1-1.21,1.42-1.91l3.86,2.02c-.35.65-.85,1.35-1.52,2.12-.66.76-1.54,1.41-2.64,1.95-1.1.54-2.5.81-4.2.81Zm-4.53-11.95h8.69c-.1-1.07-.53-1.93-1.29-2.58-.76-.65-1.75-.97-2.98-.97s-2.28.32-3.03.97c-.75.65-1.21,1.51-1.39,2.58Z"/>
        <path class="cls-2" d="m421.26,5.99c-.85,0-1.57-.27-2.15-.82-.59-.55-.88-1.27-.88-2.17s.29-1.62.88-2.17c.59-.55,1.3-.82,2.15-.82s1.6.28,2.17.82c.57.55.86,1.27.86,2.17s-.29,1.62-.86,2.17c-.57.55-1.3.82-2.17.82Zm-2.36,20.75V8.16h4.72v18.58h-4.72Z"/>
        <path class="cls-2" d="m428.86,26.74V8.16h4.64v2.1h.67c.27-.75.73-1.3,1.37-1.65.64-.35,1.38-.52,2.23-.52h2.25v4.19h-2.32c-1.2,0-2.19.32-2.96.95-.77.64-1.16,1.62-1.16,2.94v10.56h-4.72Z"/>
        <path class="cls-2" d="m449.01,27.26c-1.32,0-2.51-.23-3.56-.69-1.05-.46-1.88-1.14-2.49-2.02-.61-.89-.92-1.97-.92-3.24s.31-2.34.92-3.2,1.46-1.51,2.55-1.95c1.09-.44,2.33-.66,3.73-.66h5.09v-1.05c0-.87-.27-1.59-.82-2.15-.55-.56-1.42-.84-2.62-.84s-2.05.27-2.62.81c-.57.54-.95,1.23-1.12,2.08l-4.34-1.46c.3-.95.78-1.82,1.44-2.6s1.55-1.42,2.66-1.91c1.11-.49,2.47-.73,4.06-.73,2.45,0,4.38.61,5.81,1.84,1.42,1.22,2.13,3,2.13,5.32v6.93c0,.75.35,1.12,1.05,1.12h1.5v3.89h-3.15c-.92,0-1.68-.22-2.28-.67-.6-.45-.9-1.05-.9-1.8v-.04h-.71c-.1.3-.32.69-.67,1.18-.35.49-.9.92-1.65,1.29-.75.37-1.77.56-3.07.56Zm.82-3.82c1.32,0,2.4-.37,3.24-1.1.84-.74,1.25-1.72,1.25-2.94v-.37h-4.76c-.87,0-1.56.19-2.06.56-.5.37-.75.9-.75,1.57s.26,1.22.79,1.65c.52.42,1.29.64,2.28.64Z"/>
      </g>
    </g>
    <g>
      <polygon class="cls-1" points="11.87 26.35 0 14.48 11.87 2.61 15.37 6.11 7 14.48 15.37 22.85 11.87 26.35"/>
      <polygon class="cls-1" points="474.19 26.35 470.69 22.85 479.06 14.48 470.69 6.11 474.19 2.61 486.06 14.48 474.19 26.35"/>
    </g>
  </g>
  <polygon class="cls-1" points="181.51 27.11 176.71 27.11 188.93 0 193.73 0 181.51 27.11"/>
</svg>